<svg id="postdata-logo" width="1024" height="1024" viewBox="0 0 1024 1024" fill="none" xmlns="http://www.w3.org/2000/svg" xmlns:xlink="http://www.w3.org/1999/xlink"><defs><linearGradient id="r5" gradientUnits="userSpaceOnUse" gradientTransform="rotate(45)" style="transform-origin:center center"><stop stop-color="#07C160"/><stop offset="1" stop-color="#07C160"/></linearGradient><radialGradient id="r6" cx="0" cy="0" r="1" gradientUnits="userSpaceOnUse" gradientTransform="translate(256) rotate(90) scale(512)"><stop stop-color="white"/><stop offset="1" stop-color="white" stop-opacity="0"/></radialGradient></defs><rect id="r4" width="1024" height="1024" x="0" y="0" rx="220" fill="url(#r5)" stroke="#FFFFFF" stroke-width="0" stroke-opacity="100%" paint-order="stroke"/><svg xmlns="http://www.w3.org/2000/svg" xmlns:xlink="http://www.w3.org/1999/xlink" t="1730971629511" class="icon" viewBox="0 0 1151 1024" version="1.1" p-id="259957" width="780" height="780" x="122" y="122"><path d="M0 583.623813c3.111106 1.059117 4.97119 1.75583 6.875718 2.326123C124.011035 621.072154 241.168154 656.128351 358.244082 691.443007c6.579446 1.986195 10.990091 1.293695 16.487945-3.084642 159.281866-126.7653 318.728077-253.317092 478.151813-379.895572 1.491753-1.185536 3.017218-2.320505 4.525827-3.477948 0.220532 0.290765 0.434041 0.581531 0.653169 0.872296C731.988631 445.511638 605.920044 585.16473 479.269926 725.455539 623.517674 772.798332 766.990047 819.886881 910.90208 867.118705 990.754414 578.817053 1070.512636 290.887638 1150.699281 1.390617 766.666974 195.706206 383.896055 389.379863 0 583.623813Z" p-id="259958" fill="#ffffff"/><path d="M463.720296 1024.001646C517.218326 960.791809 569.91008 898.525586 623.138414 835.640187 569.563128 819.815243 516.789904 804.231901 463.720296 788.561471l0 235.440176z" p-id="259959" fill="#ffffff"/></svg></svg>